<?xml version="1.0" encoding="utf-8"?>
<!-- Generator: Adobe Illustrator 22.1.0, SVG Export Plug-In . SVG Version: 6.00 Build 0)  -->
<svg version="1.1" id="レイヤー_1" xmlns="http://www.w3.org/2000/svg" xmlns:xlink="http://www.w3.org/1999/xlink" x="0px"
	 y="0px" viewBox="0 0 283 80" style="enable-background:new 0 0 283 80;" xml:space="preserve">
<style type="text/css">
	.st0{fill:#FFFFFF;}
</style>
<g>
	<path class="st0" d="M56.5,36.7c-1.4,6.9-3,14.7-8.1,14.7c-3.4,0-5.3-4.1-5.3-5c0-1,0.9-1.9,1.8-1.9c0.5,0,1.1,0.2,1.5,0.9
		c0.8,1.3,1.5,1.8,2.1,1.8c2.4,0,3.7-6.7,4.5-11.5l0.1-0.4c-6,1.8-12.3,4.3-17.4,6.6c0.3,2.9,0.6,5.8,0.7,8.1
		c0.6,7.9,1.2,12,10.6,12c4.2,0,7.8-0.9,11.2-1.8c0.4-0.1,0.7-0.1,1-0.1c1.4,0,2.2,1,2.2,2c0,0.9-0.6,1.9-2,2.3
		c-3.6,1-7.9,1.4-11.4,1.4c-13.9,0-14.6-5.3-16.1-22.1c-1.9,0.9-3.5,1.7-4.8,2.2c-7.7,3.8-11.7,4.6-12,4.6c-1.5,0-2.4-1.1-2.4-2.2
		c0-0.9,0.6-1.8,2.2-2.2c4.8-1.1,9.1-2.8,16.7-6.2c-0.1-1.7-0.3-3-0.4-4.1c-0.5-4-0.9-7-1.2-9.5c0-0.1,0-0.3,0-0.4
		c0-1.4,1.1-2.2,2.2-2.2s2.1,0.6,2.3,2.1c0.4,2.2,0.5,6,0.6,8.6c0.1,1.1,0.1,2.4,0.3,3.9c5.5-2.3,12-4.8,18.4-6.7
		c0.5-3.8,1.9-12,2-12.8c0.2-1.2,1.2-1.7,2.2-1.7c1.2,0,2.2,0.7,2.2,2c0,0.2,0,0.4-0.1,0.6c-0.2,0.7-1.6,6.6-2.3,10.7
		c3.3-0.8,8.4-1.9,13.2-1.9c4.3,0,5.5,0.7,5.5,2.3c0,1-0.9,2-2.4,2c-0.2,0-0.4,0-0.5,0c-1.5-0.2-3-0.3-4.4-0.3
		c-5.2,0-9.9,1.1-12.2,1.6L56.5,36.7z"/>
	<path class="st0" d="M91.9,31.9c0-1.5,0.1-3,0.2-4.5c0.2-2.5,0.3-4.7,0.3-6.4c0-3.8-0.4-6-0.7-7.7c-0.1-0.2-0.1-0.4-0.1-0.6
		c0-1.3,1-1.9,2-1.9c2.4,0,2.9,2.2,2.9,8.8c0,1.9-0.1,4.1-0.3,6.9C96.1,28,96,29.8,96,31.5c0,4.2,1.2,6.8,6.6,6.8
		c1,0,1.9-0.6,2.6-0.9c0.3-0.1,0.6-0.2,0.9-0.2c1.1,0,2,0.9,2,1.9c0,0.8-0.4,1.6-1.7,2.4c-2.4,1.5-8.6,4.2-11.9,6
		c-5.5,3.2-8.6,7-8.6,10.3c0,5.3,6.9,7.3,12.7,7.3c5.7,0,9.7-1.9,10.8-2.7c0.7-0.5,1.4-0.7,2-0.7c1.3,0,2.2,0.9,2.2,2
		c0,3.8-10.2,5.4-14,5.4C88,69.3,82.1,64,82.1,58.2c0-4.3,3.2-9.3,10.8-13.9c2.2-1.3,4.8-2.5,6.2-3.4C94.7,40.5,91.9,37.7,91.9,31.9
		z"/>
	<path class="st0" d="M149.5,67.2c-15.9,0-25.9-11.7-25.9-26.3c0-13.8,9.4-27.2,26.1-27.2c4.9,0,9.7,1.3,13.6,4
		c0.1,0.1,0.5,0.3,0.5-0.7c0-1.5,0.2-2.7,2-2.7c1.1,0,2.2,0.6,2.2,1.9c0,0.1,0,0.1,0,0.1c-0.1,1.9-0.1,3.5-0.1,5.1s0.1,3.3,0.1,5.3
		c0,0.1,0,0.1,0,0.1c0,1.4-1.1,2.1-2.1,2.1c-1.1,0-2.2-0.6-2.2-2c0-1.1,0-3.2-0.9-4.1c-3.4-3.5-8.3-5.2-13.2-5.2
		c-13.5,0-21.4,11.2-21.4,22.7c0,10.7,6.8,22.3,21.2,22.3c6.4,0,12.8-2.6,16.3-7.3c0.6-0.8,1.4-1.2,2.1-1.2c1.3,0,2.6,1.2,2.6,2.6
		C170.3,59.3,162.1,67.2,149.5,67.2z"/>
	<path class="st0" d="M200.2,61.9c-0.1-0.2-0.1-0.4-0.3-0.4c-0.1,0-0.2,0.1-0.3,0.2c-2.2,3.5-6.8,5.5-10.9,5.5
		c-7.3,0-11.7-5-11.7-9.9c0-3.6,2.4-7.3,7.7-8.9c4.5-1.4,10.3-2.4,13.3-3c0.9-0.1,1.2-0.4,1.2-0.9c0-0.4,0.1-0.8,0.1-1.2
		c0-4-1.7-7.1-7.5-7.1c-3.9,0-6.8,1.7-8.4,3.5c-0.4,0.5-1,0.7-1.5,0.7c-1.1,0-2-0.8-2-1.9c0-2.7,6-5.8,12.2-5.8
		c6.7,0,11.2,3,11.2,11c0,0.6,0,1.3-0.1,2c-0.2,2.4-0.4,6.1-0.4,8.9c0,5.3,0.5,7,3.4,8c0.9,0.3,1.2,1.1,1.2,1.8c0,1-0.7,2-1.9,2
		C203.5,66.5,200.9,64.5,200.2,61.9z M199.1,50.8c0-0.3,0-0.6,0-0.9c0-0.6-0.2-0.8-0.7-0.8c-0.1,0-0.1,0-0.2,0
		c-11.3,1.8-17.3,3.2-17.3,8.3c0,3,2.9,6,7.7,6C192.3,63.4,199.1,61.9,199.1,50.8z"/>
	<path class="st0" d="M227.9,66.3c-1.9-0.1-4-0.1-6-0.1c-2,0-4,0.1-5.7,0.1c-1.2,0.1-2.2-0.8-2.2-1.9c0-0.9,0.7-1.9,2.1-1.9h0.1
		c0.9,0,1.4,0.1,2.5,0.1c0.7,0,1.2-0.5,1.2-1.2c0-2.8,0-6.3,0-9.6c0-6.8,0-13.2,0-13.2c0-0.9-0.1-1-1-1h-4.6c-1.2,0-1.9-0.9-1.9-1.9
		c0-1,0.6-2,1.9-2h4.6c0.8,0,1-0.1,1-0.8c0-0.7-0.1-2.7-0.1-5c0-0.6,0-1.2,0-1.9c0.2-7.8,6-12,11.6-12c0.7,0,3.2,0.1,3.2,2
		c0,1-0.8,1.9-2.2,1.9c-0.1,0-0.1,0-0.2,0c-0.2,0-0.4,0-0.6,0c-4.7,0-7.4,3.8-7.6,8.5c0,1.3-0.1,2.6-0.1,3.7c0,1.2,0.1,2.1,0.1,2.8
		c0,0.6,0.2,0.7,0.9,0.7h7.5c1.2,0,1.9,0.9,1.9,1.9c0,0.9-0.6,1.9-1.9,1.9h-7.6c-0.7,0-0.8,0.1-0.8,1c0,0,0,14.8,0.1,22.9
		c0,0.7,0.6,1.2,1.4,1.2c1.2,0,1.4,0,2.4-0.1c1.3-0.1,2.2,0.8,2.2,1.9C230.1,65.3,229.4,66.3,227.9,66.3L227.9,66.3z"/>
	<path class="st0" d="M256.3,67.3c-9.1,0-16.3-6.8-16.3-17c0-10.5,7.6-17.4,16.1-17.4c9.9,0,14.2,7.7,14.2,11.8
		c0,2.7-1.6,4.7-5.3,4.8c-1.7,0.1-4.1,0.1-6.8,0.1c-5.4,0-11.5-0.1-13.1-0.1c-0.7,0-0.9,0.3-0.9,1.3c0,7.8,5.2,12.7,12.1,12.7
		c5.3,0,8.2-2.2,10.4-4.8c0.4-0.4,0.9-0.6,1.4-0.6c1.1,0,2.2,0.9,2.2,2.1C270.4,61.8,265.4,67.3,256.3,67.3z M256.2,36.4
		c-6.9,0-11.3,6.2-11.3,8.9c0,0.7,0.6,0.7,9,0.7c3.7,0,7.8,0,9.8-0.1c1.7-0.1,2.4-0.9,2.4-2C266,41.8,263.5,36.4,256.2,36.4z"/>
</g>
</svg>
